<svg class="ldi-ntiqjt" width="200px"  height="200px"  xmlns="http://www.w3.org/2000/svg" xmlns:xlink="http://www.w3.org/1999/xlink" viewBox="0 0 100 100" preserveAspectRatio="xMidYMid" style="background: none;"><!--?xml version="1.0" encoding="utf-8"?--><!--Generator: Adobe Illustrator 21.0.0, SVG Export Plug-In . SVG Version: 6.00 Build 0)--><svg version="1.1" id="圖層_1" xmlns="http://www.w3.org/2000/svg" xmlns:xlink="http://www.w3.org/1999/xlink" x="0px" y="0px" viewBox="0 0 100 100" style="transform-origin: 50px 50px 0px;" xml:space="preserve"><g style="transform-origin: 50px 50px 0px;"><g style="transform-origin: 50px 50px 0px; transform: scale(0.6);"><g style="transform-origin: 50px 50px 0px; animation-duration: 1.3s; animation-delay: -1.3s; animation-direction: normal;" class=""><g><g class="ld ld-breath" style="transform-origin: 50px 50px 0px; animation-duration: 1.3s; animation-delay: -1.3s; animation-direction: normal;"><path style="fill: rgb(8, 65, 14);" d="M62.43,42.293c0.219-11.972,6.275-28.691,11.363-34.457c0.555-0.63,1.786-0.315,1.786,0.457l0,50.736 l0,6.161l0,22.906v1.984c0,1.337-1.348,2.42-3.011,2.42c-1.435,0-2.671-0.814-2.952-1.946l-0.195-0.783 c-0.277-1.113-0.395-2.249-0.352-3.384l0.881-23.374C65.897,60.027,62.221,53.696,62.43,42.293z" fill="#08410e"></path></g><g class="ld ld-breath" style="transform-origin: 50px 50px 0px; animation-duration: 1.3s; animation-delay: -1.18182s; animation-direction: normal;"><path style="fill: rgb(199, 215, 28);" d="M42.99,12.272c0-1.509-0.943-2.716-2.103-2.718c-0.07,0-0.138-0.008-0.209-0.002 c-1.092,0.137-1.894,1.411-1.894,2.838L38.152,26.29c0,0.944-0.765,1.709-1.709,1.709s-1.709-0.765-1.709-1.709l-0.403-15.952 c0-1.062-0.494-2.038-1.245-2.525c-0.032-0.02-0.065-0.035-0.098-0.053c-0.092-0.053-0.186-0.102-0.284-0.14 c-0.088-0.033-0.181-0.053-0.274-0.073c-0.058-0.013-0.114-0.033-0.174-0.041C32.173,7.495,32.086,7.503,32,7.502 c-0.086,0-0.173-0.007-0.257,0.003c-0.06,0.008-0.116,0.028-0.174,0.041c-0.093,0.02-0.185,0.041-0.274,0.073 c-0.098,0.038-0.192,0.087-0.284,0.14c-0.033,0.018-0.066,0.034-0.098,0.053c-0.751,0.487-1.245,1.463-1.245,2.525L29.266,26.29 c0,0.944-0.765,1.709-1.709,1.709s-1.709-0.765-1.709-1.709l-0.631-13.901c0-1.427-0.802-2.701-1.894-2.838 c-0.071-0.005-0.139,0.002-0.209,0.002c-1.16,0.002-2.103,1.21-2.103,2.718l-0.631,15.727v5.162c0,3.221,2.086,5.949,4.979,6.922 c0.983,0.52,1.931,0.777,2.531,1.948c0.46,0.899,0.634,1.863,0.693,2.847l-1.139,40.473c0,3.948,1.928,7.148,4.306,7.148h0.503 c2.378,0,4.306-3.2,4.306-7.148c0-7.39-1.139-40.473-1.139-40.473c0.059-0.984,0.232-1.949,0.693-2.847 c0.6-1.171,1.548-1.428,2.531-1.948c2.893-0.973,4.979-3.701,4.979-6.922v-5.162L42.99,12.272z" fill="#c7d71c"></path></g><metadata xmlns:d="https://loading.io/stock/" class="ld ld-breath" style="transform-origin: 50px 50px 0px; animation-duration: 1.3s; animation-delay: -1.06364s; animation-direction: normal;">
<d:name class="ld ld-breath" style="transform-origin: 50px 50px 0px; animation-duration: 1.3s; animation-delay: -0.945455s; animation-direction: normal;">food</d:name>
<d:tags class="ld ld-breath" style="transform-origin: 50px 50px 0px; animation-duration: 1.3s; animation-delay: -0.827273s; animation-direction: normal;">food,dish,dinner,lunch,breakfast,diet,eat,cuisine,gourmet</d:tags>
<d:license class="ld ld-breath" style="transform-origin: 50px 50px 0px; animation-duration: 1.3s; animation-delay: -0.709091s; animation-direction: normal;">cc-by</d:license>
<d:slug class="ld ld-breath" style="transform-origin: 50px 50px 0px; animation-duration: 1.3s; animation-delay: -0.590909s; animation-direction: normal;">ntiqjt</d:slug>
</metadata></g></g></g></g><style type="text/css" class="ld ld-breath" style="transform-origin: 50px 50px 0px; animation-duration: 1.3s; animation-delay: -0.472727s; animation-direction: normal;">path,ellipse,circle,rect,polygon,polyline,line { stroke-width: 0; }@keyframes ld-breath {
  0% {
    -webkit-transform: scale(0.86);
    transform: scale(0.86);
  }
  50% {
    -webkit-transform: scale(1.06);
    transform: scale(1.06);
  }
  100% {
    -webkit-transform: scale(0.86);
    transform: scale(0.86);
  }
}
@-webkit-keyframes ld-breath {
  0% {
    -webkit-transform: scale(0.86);
    transform: scale(0.86);
  }
  50% {
    -webkit-transform: scale(1.06);
    transform: scale(1.06);
  }
  100% {
    -webkit-transform: scale(0.86);
    transform: scale(0.86);
  }
}
.ld.ld-breath {
  -webkit-animation: ld-breath 1s infinite;
  animation: ld-breath 1s infinite;
}
</style></svg></svg>